<svg xmlns="http://www.w3.org/2000/svg" width="48" height="48" viewBox="0 0 48 48">
  <metadata><?xpacket begin="﻿" id="W5M0MpCehiHzreSzNTczkc9d"?>
<x:xmpmeta xmlns:x="adobe:ns:meta/" x:xmptk="Adobe XMP Core 5.6-c138 79.159824, 2016/09/14-01:09:01        ">
   <rdf:RDF xmlns:rdf="http://www.w3.org/1999/02/22-rdf-syntax-ns#">
      <rdf:Description rdf:about=""/>
   </rdf:RDF>
</x:xmpmeta>
                                                                                                    
                                                                                                    
                                                                                                    
                                                                                                    
                                                                                                    
                                                                                                    
                                                                                                    
                                                                                                    
                                                                                                    
                                                                                                    
                                                                                                    
                                                                                                    
                                                                                                    
                                                                                                    
                                                                                                    
                                                                                                    
                                                                                                    
                                                                                                    
                                                                                                    
                                                                                                    
                           
<?xpacket end="w"?></metadata>
<defs>
    <style>
      .cls-1 {
        fill: #939496;
        fill-rule: evenodd;
      }
    </style>
  </defs>
  <path id="i_1" class="cls-1" d="M111,1344.73c-3.143-2.81-12-9.05-12-9.05s-4.783-3.73-9,0l-12,10.06s-4,3.26-4,6.04v18.11s1.464,7.05,7,7.05h26s8-1.54,8-7.05v-19.12A13.769,13.769,0,0,0,111,1344.73Zm0,25.16c0,0.66-.593,1.32-1.762,1.97a11.315,11.315,0,0,1-2.692,1.05H81c-0.344,0-1.153,0-2.072-1.45a8.747,8.747,0,0,1-.925-2.08v-17.5a9.832,9.832,0,0,1,2.523-3.02l-0.007.01c0.013-.01.031-0.03,0.041-0.04l12-10.06c0.026-.02.052-0.05,0.078-0.07a2.227,2.227,0,0,1,1.57-.65,4.606,4.606,0,0,1,2.37.83,0.049,0.049,0,0,0-.025-0.02l0.044,0.03c-0.005,0-.014-0.01-0.02-0.01,0.041,0.03.094,0.07,0.128,0.09,2.412,1.7,9.2,6.59,11.636,8.77a10.361,10.361,0,0,1,2.659,3.72v18.43Zm-9.222-12.68-6.1,6.1c-1.014.95-2.985,2.49-4.214,1.26l-3.243-3.24a2.5,2.5,0,0,1,3.535-3.54l1.182,1.18,5.3-5.3A2.5,2.5,0,0,1,101.778,1357.21Z" transform="translate(-70.5 -1331.485)"/>
</svg>
