<svg xmlns="http://www.w3.org/2000/svg" width="48" height="48" viewBox="0 0 48 48">
  <metadata><?xpacket begin="﻿" id="W5M0MpCehiHzreSzNTczkc9d"?>
<x:xmpmeta xmlns:x="adobe:ns:meta/" x:xmptk="Adobe XMP Core 5.6-c138 79.159824, 2016/09/14-01:09:01        ">
   <rdf:RDF xmlns:rdf="http://www.w3.org/1999/02/22-rdf-syntax-ns#">
      <rdf:Description rdf:about=""/>
   </rdf:RDF>
</x:xmpmeta>
                                                                                                    
                                                                                                    
                                                                                                    
                                                                                                    
                                                                                                    
                                                                                                    
                                                                                                    
                                                                                                    
                                                                                                    
                                                                                                    
                                                                                                    
                                                                                                    
                                                                                                    
                                                                                                    
                                                                                                    
                                                                                                    
                                                                                                    
                                                                                                    
                                                                                                    
                                                                                                    
                           
<?xpacket end="w"?></metadata>
<defs>
    <style>
      .cls-1 {
        fill: #ff7e19;
        fill-rule: evenodd;
      }
    </style>
  </defs>
  <path id="i_1_this" class="cls-1" d="M106,1279H80c-5.535,0-7-7-7-7v-18c0-2.76,4-6,4-6l12-10c4.217-3.7,9,0,9,0s8.856,6.2,12,9a13.61,13.61,0,0,1,4,6v19C114,1277.47,106,1279,106,1279Zm-5.222-23.33a2.511,2.511,0,0,0-3.535,0l-5.3,5.3-1.182-1.18a2.5,2.5,0,0,0-3.535,3.54l3.243,3.24c1.229,1.23,3.2-.31,4.214-1.26l6.1-6.1A2.506,2.506,0,0,0,100.778,1255.67Z" transform="translate(-69.5 -1233.69)"/>
</svg>
