<svg xmlns="http://www.w3.org/2000/svg" width="48" height="48" viewBox="0 0 48 48">
  <metadata><?xpacket begin="﻿" id="W5M0MpCehiHzreSzNTczkc9d"?>
<x:xmpmeta xmlns:x="adobe:ns:meta/" x:xmptk="Adobe XMP Core 5.6-c138 79.159824, 2016/09/14-01:09:01        ">
   <rdf:RDF xmlns:rdf="http://www.w3.org/1999/02/22-rdf-syntax-ns#">
      <rdf:Description rdf:about=""/>
   </rdf:RDF>
</x:xmpmeta>
                                                                                                    
                                                                                                    
                                                                                                    
                                                                                                    
                                                                                                    
                                                                                                    
                                                                                                    
                                                                                                    
                                                                                                    
                                                                                                    
                                                                                                    
                                                                                                    
                                                                                                    
                                                                                                    
                                                                                                    
                                                                                                    
                                                                                                    
                                                                                                    
                                                                                                    
                                                                                                    
                           
<?xpacket end="w"?></metadata>
<defs>
    <style>
      .cls-1 {
        fill: #939496;
        fill-rule: evenodd;
      }
    </style>
  </defs>
  <path id="i_2" class="cls-1" d="M298,1351h0v8c-0.22.04-.44,2.86-0.661,2.88a16.226,16.226,0,0,1-15.462,11.19,2.054,2.054,0,0,1,.029.34V1376H289a2,2,0,0,1,.468,3.94l0.039,0.06H270.288l0.069-.12A1.978,1.978,0,0,1,269,1378a2,2,0,0,1,2-2h7.091v-2.59a2.055,2.055,0,0,1,.03-0.34,16.642,16.642,0,0,1-15.457-11.19c-0.222-.02-0.443-1.84-0.664-1.88v-9c-1.657,0-3-1.79-3-4s1.343-4,3-4v-7.05a1.885,1.885,0,0,1,1.631-.95h32.735a1.9,1.9,0,0,1,1.634.96V1343h0c1.657,0,3,1.79,3,4S299.657,1351,298,1351Zm-3-6a1.946,1.946,0,0,0-.542.08v-6.18h-28.92v6.18A1.913,1.913,0,0,0,265,1345a2,2,0,0,0,0,4,1.946,1.946,0,0,0,.542-0.08v7.7c0.211,6.91,5.678,12.7,14.456,12.7,8.7,0,14.345-5.89,14.46-12.85v-7.55a1.946,1.946,0,0,0,.542.08A2,2,0,0,0,295,1345Zm-10.845,11.42c0.2,1.52-.364,1.94-1.68,1.28a4.131,4.131,0,0,0-3.949,0c-1.317.66-1.876,0.23-1.68-1.28a4.655,4.655,0,0,0-1.221-3.92c-1.01-1.11-.8-1.79.642-2.07a4.352,4.352,0,0,0,3.195-2.42q1.035-2.025,2.075,0a4.352,4.352,0,0,0,3.2,2.42c1.438,0.28,1.652.96,0.641,2.07A4.647,4.647,0,0,0,284.155,1356.42Z" transform="translate(-256 -1333.5)"/>
</svg>
