<svg xmlns="http://www.w3.org/2000/svg" width="48" height="48" viewBox="0 0 48 48">
  <metadata><?xpacket begin="﻿" id="W5M0MpCehiHzreSzNTczkc9d"?>
<x:xmpmeta xmlns:x="adobe:ns:meta/" x:xmptk="Adobe XMP Core 5.6-c138 79.159824, 2016/09/14-01:09:01        ">
   <rdf:RDF xmlns:rdf="http://www.w3.org/1999/02/22-rdf-syntax-ns#">
      <rdf:Description rdf:about=""/>
   </rdf:RDF>
</x:xmpmeta>
                                                                                                    
                                                                                                    
                                                                                                    
                                                                                                    
                                                                                                    
                                                                                                    
                                                                                                    
                                                                                                    
                                                                                                    
                                                                                                    
                                                                                                    
                                                                                                    
                                                                                                    
                                                                                                    
                                                                                                    
                                                                                                    
                                                                                                    
                                                                                                    
                                                                                                    
                                                                                                    
                           
<?xpacket end="w"?></metadata>
<defs>
    <style>
      .cls-1 {
        fill: #ff7e19;
        fill-rule: evenodd;
      }
    </style>
  </defs>
  <path id="i_2_this" class="cls-1" d="M302,1252h0v8c-0.22.04-.44,2.86-0.661,2.88a16.226,16.226,0,0,1-15.462,11.19,2.054,2.054,0,0,1,.029.34V1277H293a2,2,0,0,1,.468,3.94l0.039,0.06H274.288l0.069-.12A1.978,1.978,0,0,1,273,1279a2,2,0,0,1,2-2h7.091v-2.59a2.055,2.055,0,0,1,.03-0.34,16.642,16.642,0,0,1-15.457-11.19c-0.222-.02-0.443-1.84-0.664-1.88v-9c-1.657,0-3-1.79-3-4s1.343-4,3-4v-7.05a1.885,1.885,0,0,1,1.631-.95h32.735a1.9,1.9,0,0,1,1.634.96V1244h0c1.657,0,3,1.79,3,4S303.657,1252,302,1252Zm-13.767-.57a4.352,4.352,0,0,1-3.2-2.42q-1.036-2.025-2.075,0a4.352,4.352,0,0,1-3.195,2.42c-1.437.28-1.652,0.96-.642,2.07a4.655,4.655,0,0,1,1.221,3.92c-0.2,1.51.363,1.94,1.68,1.28a4.131,4.131,0,0,1,3.949,0c1.316,0.66,1.876.24,1.68-1.28a4.647,4.647,0,0,1,1.219-3.92C289.885,1252.39,289.671,1251.71,288.233,1251.43Z" transform="translate(-260 -1234.5)"/>
</svg>
