<svg xmlns="http://www.w3.org/2000/svg" width="48" height="48" viewBox="0 0 48 48">
  <metadata><?xpacket begin="﻿" id="W5M0MpCehiHzreSzNTczkc9d"?>
<x:xmpmeta xmlns:x="adobe:ns:meta/" x:xmptk="Adobe XMP Core 5.6-c138 79.159824, 2016/09/14-01:09:01        ">
   <rdf:RDF xmlns:rdf="http://www.w3.org/1999/02/22-rdf-syntax-ns#">
      <rdf:Description rdf:about=""/>
   </rdf:RDF>
</x:xmpmeta>
                                                                                                    
                                                                                                    
                                                                                                    
                                                                                                    
                                                                                                    
                                                                                                    
                                                                                                    
                                                                                                    
                                                                                                    
                                                                                                    
                                                                                                    
                                                                                                    
                                                                                                    
                                                                                                    
                                                                                                    
                                                                                                    
                                                                                                    
                                                                                                    
                                                                                                    
                                                                                                    
                           
<?xpacket end="w"?></metadata>
<defs>
    <style>
      .cls-1 {
        fill: #939496;
        fill-rule: evenodd;
      }
    </style>
  </defs>
  <path id="i_3" class="cls-1" d="M469,1381a23,23,0,1,1,23-23A23,23,0,0,1,469,1381Zm0-42a19,19,0,1,0,19,19A19,19,0,0,0,469,1339Zm5,22a2,2,0,0,1,0,4h-3v3a2,2,0,0,1-4,0v-3h-3a2,2,0,0,1,0-4h3v-2h-3a2,2,0,0,1,0-4h10a2,2,0,0,1,0,4h-3v2h3Zm-1.889-6.78a2,2,0,0,1-2.829-2.83l2.607-2.61a2,2,0,0,1,2.829,2.83Zm-7.222,0-2.607-2.61a2,2,0,0,1,2.829-2.83l2.606,2.61A2,2,0,1,1,464.889,1354.22Z" transform="translate(-445 -1334)"/>
</svg>
