<svg xmlns="http://www.w3.org/2000/svg" width="48" height="48" viewBox="0 0 48 48">
  <metadata><?xpacket begin="﻿" id="W5M0MpCehiHzreSzNTczkc9d"?>
<x:xmpmeta xmlns:x="adobe:ns:meta/" x:xmptk="Adobe XMP Core 5.6-c138 79.159824, 2016/09/14-01:09:01        ">
   <rdf:RDF xmlns:rdf="http://www.w3.org/1999/02/22-rdf-syntax-ns#">
      <rdf:Description rdf:about=""/>
   </rdf:RDF>
</x:xmpmeta>
                                                                                                    
                                                                                                    
                                                                                                    
                                                                                                    
                                                                                                    
                                                                                                    
                                                                                                    
                                                                                                    
                                                                                                    
                                                                                                    
                                                                                                    
                                                                                                    
                                                                                                    
                                                                                                    
                                                                                                    
                                                                                                    
                                                                                                    
                                                                                                    
                                                                                                    
                                                                                                    
                           
<?xpacket end="w"?></metadata>
<defs>
    <style>
      .cls-1 {
        fill: #939496;
        fill-rule: evenodd;
      }
    </style>
  </defs>
  <path id="i_4" class="cls-1" d="M659.5,1367.2a17.1,17.1,0,1,1,17.5-17.1A17.3,17.3,0,0,1,659.5,1367.2Zm0-30.2a13.009,13.009,0,1,0,13.5,13A13.257,13.257,0,0,0,659.5,1337Zm-11.394,35.31c3.08-2.84,6.172-.18,11.394-0.01,5.222-.17,8.314-2.83,11.394.01,3.2,2.96,3.6,5.58,3.6,5.58,0.029,0.44.168,1.49-1.492,2.11a2.406,2.406,0,0,1-2.324-.07,11.264,11.264,0,0,0-2.44-3.78c-2.362-2.49-4.733-.16-8.736-0.01-4-.15-6.374-2.48-8.736.01a11.59,11.59,0,0,0-2.339,3.51A2.165,2.165,0,0,1,646,1380c-1.736-.73-1.43-1.65-1.493-2.11C644.507,1377.89,644.908,1375.27,648.106,1372.31Z" transform="translate(-635.5 -1332.625)"/>
</svg>
