<svg xmlns="http://www.w3.org/2000/svg" width="48" height="48" viewBox="0 0 48 48">
  <metadata><?xpacket begin="﻿" id="W5M0MpCehiHzreSzNTczkc9d"?>
<x:xmpmeta xmlns:x="adobe:ns:meta/" x:xmptk="Adobe XMP Core 5.6-c138 79.159824, 2016/09/14-01:09:01        ">
   <rdf:RDF xmlns:rdf="http://www.w3.org/1999/02/22-rdf-syntax-ns#">
      <rdf:Description rdf:about=""/>
   </rdf:RDF>
</x:xmpmeta>
                                                                                                    
                                                                                                    
                                                                                                    
                                                                                                    
                                                                                                    
                                                                                                    
                                                                                                    
                                                                                                    
                                                                                                    
                                                                                                    
                                                                                                    
                                                                                                    
                                                                                                    
                                                                                                    
                                                                                                    
                                                                                                    
                                                                                                    
                                                                                                    
                                                                                                    
                                                                                                    
                           
<?xpacket end="w"?></metadata>
<defs>
    <style>
      .cls-1 {
        fill: #ff7e19;
        fill-rule: evenodd;
      }
    </style>
  </defs>
  <path id="i_4_this" class="cls-1" d="M657.5,1273.21A17.109,17.109,0,1,1,675,1256.1,17.308,17.308,0,0,1,657.5,1273.21ZM668.792,1286H646a0.517,0.517,0,0,0,.018-0.06c-0.041.02-.09,0.04-0.133,0.06H644c-1.736-.73-1.43-1.65-1.493-2.11,0,0,.4-2.62,3.6-5.58,3.08-2.84,6.172-.18,11.394-0.01,5.222-.17,8.314-2.83,11.394.01,3.2,2.96,3.6,5.58,3.6,5.58,0.029,0.44.168,1.49-1.492,2.11h-2.208ZM654,1263a6.251,6.251,0,0,0,3.588,1,5.561,5.561,0,0,0,3.412-1c1.832-1.05,2.639-.35,3,0a1.56,1.56,0,0,1,0,2,8.43,8.43,0,0,1-6.412,3,8.288,8.288,0,0,1-6.588-3,1.6,1.6,0,0,1,0-2C651.365,1262.61,651.46,1261.99,654,1263Z" transform="translate(-633.5 -1238.5)"/>
</svg>
