<svg id="icon_mima" xmlns="http://www.w3.org/2000/svg" width="44" height="44" viewBox="0 0 44 44">
  <metadata><?xpacket begin="﻿" id="W5M0MpCehiHzreSzNTczkc9d"?>
<x:xmpmeta xmlns:x="adobe:ns:meta/" x:xmptk="Adobe XMP Core 5.6-c138 79.159824, 2016/09/14-01:09:01        ">
   <rdf:RDF xmlns:rdf="http://www.w3.org/1999/02/22-rdf-syntax-ns#">
      <rdf:Description rdf:about=""/>
   </rdf:RDF>
</x:xmpmeta>
                                                                                                    
                                                                                                    
                                                                                                    
                                                                                                    
                                                                                                    
                                                                                                    
                                                                                                    
                                                                                                    
                                                                                                    
                                                                                                    
                                                                                                    
                                                                                                    
                                                                                                    
                                                                                                    
                                                                                                    
                                                                                                    
                                                                                                    
                                                                                                    
                                                                                                    
                                                                                                    
                           
<?xpacket end="w"?></metadata>
<defs>
    <style>
      .cls-1, .cls-2 {
        fill-rule: evenodd;
      }

      .cls-2 {
        fill: #ff7050;
      }
    </style>
  </defs>
  <path id="_2" data-name="2" class="cls-1" d="M107,639H90a6,6,0,0,1-6-6V619a6,6,0,0,1,6-6v-1.5a8.5,8.5,0,1,1,17,0V613a6,6,0,0,1,6,6v14A6,6,0,0,1,107,639Zm-2-27.5a6.5,6.5,0,0,0-13,0V613h13v-1.5Zm6,8.5c0-2.761-1.239-5-4-5H90c-2.761,0-4,2.239-4,5v12c0,2.761,1.239,5,4,5h17c2.761,0,4-2.239,4-5V620Z" transform="translate(-76.5 -599)"/>
  <path id="_1" data-name="1" class="cls-2" d="M99.95,627.75a0.965,0.965,0,0,1,.05.25v3a1,1,0,1,1-2,0v-3a0.965,0.965,0,0,1,.05-0.25A2,2,0,1,1,99.95,627.75Z" transform="translate(-76.5 -599)"/>
</svg>
