<svg id="icon_mima2" xmlns="http://www.w3.org/2000/svg" width="44" height="44" viewBox="0 0 44 44">
  <metadata><?xpacket begin="﻿" id="W5M0MpCehiHzreSzNTczkc9d"?>
<x:xmpmeta xmlns:x="adobe:ns:meta/" x:xmptk="Adobe XMP Core 5.6-c138 79.159824, 2016/09/14-01:09:01        ">
   <rdf:RDF xmlns:rdf="http://www.w3.org/1999/02/22-rdf-syntax-ns#">
      <rdf:Description rdf:about=""/>
   </rdf:RDF>
</x:xmpmeta>
                                                                                                    
                                                                                                    
                                                                                                    
                                                                                                    
                                                                                                    
                                                                                                    
                                                                                                    
                                                                                                    
                                                                                                    
                                                                                                    
                                                                                                    
                                                                                                    
                                                                                                    
                                                                                                    
                                                                                                    
                                                                                                    
                                                                                                    
                                                                                                    
                                                                                                    
                                                                                                    
                           
<?xpacket end="w"?></metadata>
<defs>
    <style>
      .cls-1, .cls-2 {
        fill-rule: evenodd;
      }

      .cls-2 {
        fill: #ff7050;
      }
    </style>
  </defs>
  <path id="_2" data-name="2" class="cls-1" d="M100,793H83a6,6,0,0,1-6-6V773a6,6,0,0,1,6-6v-1.5a8.5,8.5,0,0,1,17,0V767a6,6,0,0,1,6,6v14A6,6,0,0,1,100,793Zm-2-27.5a6.5,6.5,0,0,0-13,0V767H98v-1.5Zm6,8.5c0-2.761-1.239-5-4-5H83c-2.761,0-4,2.239-4,5v12c0,2.761,1.239,5,4,5h17c2.761,0,4-2.239,4-5V774Z" transform="translate(-69.5 -753)"/>
  <path id="_1" data-name="1" class="cls-2" d="M97.1,778.646l-4.95,4.95a1,1,0,0,1-1.414,0L87.9,780.768a1,1,0,0,1,1.414-1.414l2.121,2.121,4.243-4.243A1,1,0,0,1,97.1,778.646Z" transform="translate(-69.5 -753)"/>
</svg>
