<svg id="_-s-icon_yzm" data-name="-s-icon_yzm" xmlns="http://www.w3.org/2000/svg" width="44" height="44" viewBox="0 0 44 44">
  <metadata><?xpacket begin="﻿" id="W5M0MpCehiHzreSzNTczkc9d"?>
<x:xmpmeta xmlns:x="adobe:ns:meta/" x:xmptk="Adobe XMP Core 5.6-c138 79.159824, 2016/09/14-01:09:01        ">
   <rdf:RDF xmlns:rdf="http://www.w3.org/1999/02/22-rdf-syntax-ns#">
      <rdf:Description rdf:about=""/>
   </rdf:RDF>
</x:xmpmeta>
                                                                                                    
                                                                                                    
                                                                                                    
                                                                                                    
                                                                                                    
                                                                                                    
                                                                                                    
                                                                                                    
                                                                                                    
                                                                                                    
                                                                                                    
                                                                                                    
                                                                                                    
                                                                                                    
                                                                                                    
                                                                                                    
                                                                                                    
                                                                                                    
                                                                                                    
                                                                                                    
                           
<?xpacket end="w"?></metadata>
<defs>
    <style>
      .cls-1, .cls-2 {
        fill-rule: evenodd;
      }

      .cls-2 {
        fill: #ff6f51;
      }
    </style>
  </defs>
  <path id="圆角矩形_2_拷贝" data-name="圆角矩形 2 拷贝" class="cls-1" d="M91,554h17a6,6,0,0,1,6,6v24a6,6,0,0,1-6,6H91a6,6,0,0,1-6-6V560A6,6,0,0,1,91,554Zm0,2h17c2.761,0,4,2.239,4,5v22c0,2.761-1.239,5-4,5H91c-2.761,0-4-2.239-4-5V561C87,558.239,88.239,556,91,556Z" transform="translate(-77.5 -550)"/>
  <path id="圆角矩形_4_拷贝_2" data-name="圆角矩形 4 拷贝 2" class="cls-2" d="M93,571h13a1,1,0,0,1,0,2H93A1,1,0,0,1,93,571Zm3-7h7a1,1,0,0,1,0,2H96A1,1,0,0,1,96,564Zm0,14h7a1,1,0,0,1,0,2H96A1,1,0,0,1,96,578Z" transform="translate(-77.5 -550)"/>
</svg>
