<svg id="icon_tjm" xmlns="http://www.w3.org/2000/svg" width="44" height="44" viewBox="0 0 44 44">
  <metadata><?xpacket begin="﻿" id="W5M0MpCehiHzreSzNTczkc9d"?>
<x:xmpmeta xmlns:x="adobe:ns:meta/" x:xmptk="Adobe XMP Core 5.6-c138 79.159824, 2016/09/14-01:09:01        ">
   <rdf:RDF xmlns:rdf="http://www.w3.org/1999/02/22-rdf-syntax-ns#">
      <rdf:Description rdf:about=""/>
   </rdf:RDF>
</x:xmpmeta>
                                                                                                    
                                                                                                    
                                                                                                    
                                                                                                    
                                                                                                    
                                                                                                    
                                                                                                    
                                                                                                    
                                                                                                    
                                                                                                    
                                                                                                    
                                                                                                    
                                                                                                    
                                                                                                    
                                                                                                    
                                                                                                    
                                                                                                    
                                                                                                    
                                                                                                    
                                                                                                    
                           
<?xpacket end="w"?></metadata>
<defs>
    <style>
      .cls-1, .cls-2 {
        fill-rule: evenodd;
      }

      .cls-2 {
        fill: #ff7050;
      }
    </style>
  </defs>
  <path id="_1" data-name="1" class="cls-1" d="M108.494,784.2a1.031,1.031,0,1,0,.968-1.821,15.245,15.245,0,0,0-2.45-1.029,10.293,10.293,0,1,0-9.759,0A14.528,14.528,0,0,0,87,795.014a1.029,1.029,0,0,0,2.059,0c0-6.822,5.868-12.347,13.073-12.347a13.658,13.658,0,0,1,6.362,1.533h0Zm-14.587-11.9a8.234,8.234,0,1,1,2.412,5.821,8.233,8.233,0,0,1-2.412-5.821h0Zm0,0" transform="translate(-80.5 -757.015)"/>
  <path id="_2" data-name="2" class="cls-2" d="M117,791h-7a1,1,0,0,1,0-2h7A1,1,0,0,1,117,791Zm-7,3h7a1,1,0,0,1,0,2h-7A1,1,0,0,1,110,794Z" transform="translate(-80.5 -757.015)"/>
</svg>
