<svg xmlns="http://www.w3.org/2000/svg" width="64" height="64" viewBox="0 0 64 64">
  <metadata><?xpacket begin="﻿" id="W5M0MpCehiHzreSzNTczkc9d"?>
<x:xmpmeta xmlns:x="adobe:ns:meta/" x:xmptk="Adobe XMP Core 5.6-c138 79.159824, 2016/09/14-01:09:01        ">
   <rdf:RDF xmlns:rdf="http://www.w3.org/1999/02/22-rdf-syntax-ns#">
      <rdf:Description rdf:about=""/>
   </rdf:RDF>
</x:xmpmeta>
                                                                                                    
                                                                                                    
                                                                                                    
                                                                                                    
                                                                                                    
                                                                                                    
                                                                                                    
                                                                                                    
                                                                                                    
                                                                                                    
                                                                                                    
                                                                                                    
                                                                                                    
                                                                                                    
                                                                                                    
                                                                                                    
                                                                                                    
                                                                                                    
                                                                                                    
                                                                                                    
                           
<?xpacket end="w"?></metadata>
<defs>
    <style>
      .cls-1 {
        fill: #000000;
        fill-rule: evenodd;
      }
    </style>
  </defs>
  <path id="icon_topnav_mail" class="cls-1" d="M621.523,120h-15.33l-5.693,5.693L594.807,120h-3.889a5.805,5.805,0,0,1-5.739-5.87V87.739a5.805,5.805,0,0,1,5.739-5.87h30.605a5.8,5.8,0,0,1,5.738,5.87v26.39A5.805,5.805,0,0,1,621.523,120Zm1.913-32.26a1.935,1.935,0,0,0-1.913-1.957H590.918a1.935,1.935,0,0,0-1.913,1.957v26.39a1.935,1.935,0,0,0,1.913,1.957h5.192l4.39,4.364,4.389-4.364h16.634a1.936,1.936,0,0,0,1.913-1.957V87.739ZM610,98h6v6h-6V98Zm-13,0h6v6h-6V98Z" transform="translate(-574.219 -71.781)"/>
</svg>
