<svg xmlns="http://www.w3.org/2000/svg" width="40" height="40" viewBox="0 0 40 40">
  <metadata><?xpacket begin="﻿" id="W5M0MpCehiHzreSzNTczkc9d"?>
<x:xmpmeta xmlns:x="adobe:ns:meta/" x:xmptk="Adobe XMP Core 5.6-c138 79.159824, 2016/09/14-01:09:01        ">
   <rdf:RDF xmlns:rdf="http://www.w3.org/1999/02/22-rdf-syntax-ns#">
      <rdf:Description rdf:about=""/>
   </rdf:RDF>
</x:xmpmeta>
                                                                                                    
                                                                                                    
                                                                                                    
                                                                                                    
                                                                                                    
                                                                                                    
                                                                                                    
                                                                                                    
                                                                                                    
                                                                                                    
                                                                                                    
                                                                                                    
                                                                                                    
                                                                                                    
                                                                                                    
                                                                                                    
                                                                                                    
                                                                                                    
                                                                                                    
                                                                                                    
                           
<?xpacket end="w"?></metadata>
<defs>
    <style>
      .cls-1 {
        fill: #989898;
        fill-rule: evenodd;
      }
    </style>
  </defs>
  <path id="itime" class="cls-1" d="M55,503a17.975,17.975,0,0,1-13.968-29.319A2,2,0,0,1,45,474a7.709,7.709,0,0,1-.717,2A14,14,0,1,0,55,471v4a2,2,0,1,1-4,0v-7.539A18,18,0,1,1,55,503Zm0.578-15.669a2.6,2.6,0,0,1-3.522-.531l-6.068-6.542a1.569,1.569,0,0,1,.067-2.153,1.6,1.6,0,0,1,2.184-.137l6.881,5.979C56.265,484.942,56.5,486.494,55.578,487.331Z" transform="translate(-35 -465)"/>
</svg>
