<svg xmlns="http://www.w3.org/2000/svg" width="28" height="28" viewBox="0 0 28 28">
  <metadata><?xpacket begin="﻿" id="W5M0MpCehiHzreSzNTczkc9d"?>
<x:xmpmeta xmlns:x="adobe:ns:meta/" x:xmptk="Adobe XMP Core 5.6-c138 79.159824, 2016/09/14-01:09:01        ">
   <rdf:RDF xmlns:rdf="http://www.w3.org/1999/02/22-rdf-syntax-ns#">
      <rdf:Description rdf:about=""/>
   </rdf:RDF>
</x:xmpmeta>
                                                                                                    
                                                                                                    
                                                                                                    
                                                                                                    
                                                                                                    
                                                                                                    
                                                                                                    
                                                                                                    
                                                                                                    
                                                                                                    
                                                                                                    
                                                                                                    
                                                                                                    
                                                                                                    
                                                                                                    
                                                                                                    
                                                                                                    
                                                                                                    
                                                                                                    
                                                                                                    
                           
<?xpacket end="w"?></metadata>
<defs>
    <style>
      .cls-1 {
        fill: #a5a6ac;
        fill-rule: evenodd;
      }
    </style>
  </defs>
  <path id="hangqing_nav_paixu" class="cls-1" d="M67.5,264h-13a1.5,1.5,0,0,1,0-3h13A1.5,1.5,0,0,1,67.5,264Zm0-9h-13a1.5,1.5,0,0,1,0-3h13A1.5,1.5,0,0,1,67.5,255Zm-19,18a1.494,1.494,0,0,1-1.05-.432,1.473,1.473,0,0,1-.914-0.411l-3.192-3.193a1.5,1.5,0,0,1,2.121-2.121L47,268.379V253.5a1.5,1.5,0,0,1,3,0v18A1.5,1.5,0,0,1,48.5,273Zm6-3h13a1.5,1.5,0,0,1,0,3h-13A1.5,1.5,0,0,1,54.5,270Z" transform="translate(-41.953 -248.5)"/>
</svg>
