<svg xmlns="http://www.w3.org/2000/svg" width="64" height="64" viewBox="0 0 64 64">
  <metadata><?xpacket begin="﻿" id="W5M0MpCehiHzreSzNTczkc9d"?>
<x:xmpmeta xmlns:x="adobe:ns:meta/" x:xmptk="Adobe XMP Core 5.6-c138 79.159824, 2016/09/14-01:09:01        ">
   <rdf:RDF xmlns:rdf="http://www.w3.org/1999/02/22-rdf-syntax-ns#">
      <rdf:Description rdf:about=""/>
   </rdf:RDF>
</x:xmpmeta>
                                                                                                    
                                                                                                    
                                                                                                    
                                                                                                    
                                                                                                    
                                                                                                    
                                                                                                    
                                                                                                    
                                                                                                    
                                                                                                    
                                                                                                    
                                                                                                    
                                                                                                    
                                                                                                    
                                                                                                    
                                                                                                    
                                                                                                    
                                                                                                    
                                                                                                    
                                                                                                    
                           
<?xpacket end="w"?></metadata>
<defs>
    <style>
      .cls-1 {
        fill: #fff;
        fill-rule: evenodd;
      }
    </style>
  </defs>
  <path id="wenti2" class="cls-1" d="M690,78a23,23,0,1,1-23,23A23,23,0,0,1,690,78Zm0,4a19,19,0,1,1-19,19A19,19,0,0,1,690,82Zm1.8,24.753a3.416,3.416,0,0,1-.412-1.611,3.482,3.482,0,0,1,.381-1.6,8.432,8.432,0,0,1,1.986-2.1,11.015,11.015,0,0,0,2.748-3.023,6.367,6.367,0,0,0,.749-3.084,5.289,5.289,0,0,0-1.909-4.373,8.088,8.088,0,0,0-5.208-1.535,11.036,11.036,0,0,0-5.8,1.535v4.757a7.731,7.731,0,0,1,5.253-2.179,2.805,2.805,0,0,1,1.97.7,2.315,2.315,0,0,1,.764,1.788,3.453,3.453,0,0,1-.534,1.857,10.489,10.489,0,0,1-2.047,2.149A6.041,6.041,0,0,0,687.3,104.7a5.926,5.926,0,0,0,.366,2.056h4.139Zm-3.925,6.43a3.186,3.186,0,0,0,2.26.782,2.664,2.664,0,0,0,1.909-.759,2.5,2.5,0,0,0,.794-1.88,2.394,2.394,0,0,0-.847-1.88,2.966,2.966,0,0,0-2.024-.744,3.056,3.056,0,0,0-2.077.744,2.386,2.386,0,0,0-.855,1.88A2.456,2.456,0,0,0,687.88,113.182Z" transform="translate(-658 -69)"/>
</svg>
